<svg width="1452" height="727" viewBox="0 0 1452 727" fill="none" xmlns="http://www.w3.org/2000/svg">
<path d="M1452.74 726.37C1452.74 533.725 1376.21 348.97 1239.99 212.749C1103.77 76.5281 919.016 1.45443e-05 726.37 0C533.725 -1.45443e-05 348.97 76.528 212.749 212.749C76.5281 348.97 2.90886e-05 533.725 0 726.37L726.37 726.37H1452.74Z" fill="white" fill-opacity="0.02"/>
<path d="M1229.02 726.37C1229.02 593.058 1176.06 465.207 1081.8 370.941C987.534 276.676 859.682 223.718 726.37 223.718C593.058 223.718 465.207 276.676 370.941 370.941C276.676 465.207 223.718 593.058 223.718 726.37L726.37 726.37H1229.02Z" fill="white" fill-opacity="0.02"/>
<path d="M1023.77 726.37C1023.77 687.315 1016.08 648.643 1001.13 612.56C986.186 576.478 964.28 543.693 936.664 516.077C909.047 488.461 876.262 466.554 840.18 451.609C804.098 436.663 765.425 428.971 726.37 428.971C687.315 428.971 648.642 436.663 612.56 451.609C576.478 466.555 543.693 488.461 516.077 516.077C488.461 543.693 466.554 576.478 451.609 612.56C436.663 648.643 428.971 687.315 428.971 726.37H726.37H1023.77Z" fill="white" fill-opacity="0.02"/>
<path d="M1000.9 612.656C1015.8 648.631 1023.49 687.183 1023.52 726.12H726.37L429.221 726.12C429.253 687.183 436.938 648.631 451.84 612.656C466.773 576.604 488.661 543.847 516.254 516.254C543.846 488.661 576.604 466.773 612.656 451.84C648.708 436.907 687.348 429.221 726.37 429.221C765.392 429.221 804.033 436.907 840.084 451.84C876.136 466.773 908.894 488.661 936.487 516.254C964.08 543.847 985.968 576.604 1000.9 612.656ZM428.721 726.12H223.968C224.034 592.965 276.958 465.278 371.118 371.118C465.337 276.899 593.125 223.968 726.37 223.968C859.616 223.968 987.404 276.899 1081.62 371.118C1175.78 465.278 1228.71 592.965 1228.77 726.12H1024.02C1023.99 687.117 1016.29 648.5 1001.36 612.465C986.404 576.352 964.48 543.539 936.84 515.9C909.201 488.261 876.388 466.336 840.276 451.378C804.163 436.419 765.458 428.721 726.37 428.721C687.282 428.721 648.577 436.419 612.465 451.378C576.352 466.336 543.539 488.261 515.9 515.9C488.261 543.539 466.336 576.352 451.378 612.465C436.451 648.5 428.753 687.117 428.721 726.12ZM0.250043 726.12C0.316249 533.631 76.8107 349.041 212.926 212.926C349.1 76.7517 533.791 0.249985 726.37 0.25C918.949 0.250015 1103.64 76.7518 1239.81 212.926C1375.93 349.041 1452.42 533.631 1452.49 726.12H1229.27C1229.21 592.832 1176.23 465.018 1081.98 370.764C987.663 276.452 859.748 223.468 726.37 223.468C592.992 223.468 465.077 276.452 370.764 370.764C276.511 465.018 223.534 592.832 223.468 726.12L0.250043 726.12Z" stroke="white" stroke-opacity="0.04" stroke-width="0.5"/>
</svg>
