<svg width="32" height="32" viewBox="0 0 32 32" fill="none" xmlns="http://www.w3.org/2000/svg">
<path d="M15.9987 9.83606C12.5934 9.83606 9.83469 12.5961 9.83469 16.0001C9.83469 19.4054 12.5934 22.1654 15.9987 22.1654C19.4014 22.1654 22.1627 19.4054 22.1627 16.0001C22.1627 12.5961 19.4014 9.83606 15.9987 9.83606ZM15.9987 20.0054C13.7867 20.0054 11.9934 18.2121 11.9934 16.0014C11.9934 13.7894 13.7867 11.9974 15.9987 11.9974C18.2107 11.9974 20.0014 13.7894 20.0014 16.0014C20.0014 18.2121 18.2107 20.0054 15.9987 20.0054Z" fill="white"/>
<path d="M22.408 11.0467C23.2018 11.0467 23.8453 10.4031 23.8453 9.60933C23.8453 8.81551 23.2018 8.172 22.408 8.172C21.6142 8.172 20.9707 8.81551 20.9707 9.60933C20.9707 10.4031 21.6142 11.0467 22.408 11.0467Z" fill="white"/>
<path d="M27.3774 8.14805C26.752 6.53605 25.4787 5.26138 23.8667 4.63871C22.9347 4.28805 21.9494 4.10005 20.952 4.07871C19.668 4.02271 19.2614 4.00671 16.0054 4.00671C12.7494 4.00671 12.332 4.00671 11.0587 4.07871C10.064 4.09871 9.07869 4.28671 8.14669 4.63871C6.53335 5.26138 5.26002 6.53605 4.63602 8.14805C4.28535 9.08138 4.09735 10.0654 4.07735 11.0627C4.02002 12.3454 4.00269 12.752 4.00269 16.0094C4.00269 19.2654 4.00269 19.68 4.07735 20.956C4.09735 21.9534 4.28535 22.9374 4.63602 23.872C5.26135 25.4827 6.53469 26.7574 8.14802 27.3814C9.07602 27.744 10.0614 27.9494 11.0614 27.9814C12.3454 28.0374 12.752 28.0547 16.008 28.0547C19.264 28.0547 19.6814 28.0547 20.9547 27.9814C21.9507 27.9614 22.936 27.772 23.8694 27.4227C25.4814 26.7974 26.7547 25.524 27.38 23.912C27.7307 22.9787 27.9187 21.9947 27.9387 20.9974C27.996 19.7147 28.0134 19.308 28.0134 16.0507C28.0134 12.7934 28.0134 12.38 27.9387 11.104C27.9214 10.0934 27.7347 9.09205 27.3774 8.14805ZM25.7534 20.8574C25.744 21.6254 25.6054 22.3867 25.3387 23.108C24.932 24.1574 24.104 24.9867 23.056 25.3894C22.3427 25.6547 21.5907 25.7934 20.8294 25.804C19.5627 25.8627 19.2054 25.8774 15.9574 25.8774C12.7067 25.8774 12.3747 25.8774 11.084 25.804C10.3254 25.7947 9.57069 25.6547 8.85869 25.3894C7.80669 24.988 6.97335 24.1587 6.56669 23.108C6.30535 22.396 6.16402 21.6427 6.15202 20.8827C6.09469 19.616 6.08135 19.2587 6.08135 16.0107C6.08135 12.7614 6.08135 12.4294 6.15202 11.1374C6.16135 10.3694 6.30002 9.60938 6.56669 8.88805C6.97335 7.83605 7.80669 7.00805 8.85869 6.60538C9.57069 6.34138 10.3254 6.20138 11.084 6.19071C12.352 6.13338 12.708 6.11738 15.9574 6.11738C19.2067 6.11738 19.54 6.11738 20.8294 6.19071C21.5907 6.20005 22.3427 6.34005 23.056 6.60538C24.104 7.00938 24.932 7.83871 25.3387 8.88805C25.6 9.60005 25.7414 10.3534 25.7534 11.1134C25.8107 12.3814 25.8254 12.7374 25.8254 15.9867C25.8254 19.2347 25.8254 19.584 25.768 20.8587H25.7534V20.8574Z" fill="white"/>
</svg>
