<svg width="32" height="32" viewBox="0 0 32 32" fill="none" xmlns="http://www.w3.org/2000/svg">
<path d="M6.64399 9.59602C8.25519 9.59602 9.56132 8.28988 9.56132 6.67869C9.56132 5.06749 8.25519 3.76135 6.64399 3.76135C5.03279 3.76135 3.72665 5.06749 3.72665 6.67869C3.72665 8.28988 5.03279 9.59602 6.64399 9.59602Z" fill="white"/>
<path d="M12.316 11.8066V27.9919H17.3413V19.9879C17.3413 17.8759 17.7387 15.8306 20.3573 15.8306C22.94 15.8306 22.972 18.2453 22.972 20.1213V27.9933H28V19.1173C28 14.7573 27.0613 11.4066 21.9653 11.4066C19.5187 11.4066 17.8787 12.7493 17.208 14.0199H17.14V11.8066H12.316ZM4.12668 11.8066H9.16001V27.9919H4.12668V11.8066Z" fill="white"/>
</svg>
